<?xml version="1.0" standalone="no"?>
<!DOCTYPE svg PUBLIC "-//W3C//DTD SVG 20010904//EN"
 "http://www.w3.org/TR/2001/REC-SVG-20010904/DTD/svg10.dtd">
<svg version="1.0" xmlns="http://www.w3.org/2000/svg"
 width="1022.000000pt" height="1022.000000pt" viewBox="0 0 1022.000000 1022.000000"
 preserveAspectRatio="xMidYMid meet">
<metadata>
Created by potrace 1.14, written by Peter Selinger 2001-2017
</metadata>
<g transform="translate(0.000000,1022.000000) scale(0.100000,-0.100000)"
fill="#000000" stroke="none">
<path d="M4838 10215 c-2 -2 -48 -6 -103 -10 -55 -4 -113 -8 -130 -10 -33 -4
-128 -16 -160 -20 -89 -11 -131 -17 -149 -21 -12 -2 -37 -7 -56 -9 -19 -3 -44
-8 -56 -10 -12 -3 -39 -7 -60 -10 -21 -4 -47 -8 -56 -11 -9 -3 -26 -7 -37 -9
-12 -3 -29 -7 -38 -9 -71 -17 -122 -28 -143 -32 -14 -3 -38 -9 -55 -14 -16 -6
-77 -24 -135 -41 -212 -62 -435 -143 -570 -206 -30 -14 -73 -32 -95 -41 -51
-20 -321 -158 -399 -203 -32 -19 -82 -47 -110 -64 -185 -107 -520 -347 -676
-484 -14 -12 -52 -45 -85 -74 -195 -167 -510 -506 -675 -727 -14 -18 -30 -38
-35 -44 -30 -32 -295 -427 -295 -440 0 -2 -18 -34 -41 -72 -39 -63 -211 -393
-211 -404 0 -3 -13 -34 -30 -69 -96 -205 -270 -723 -303 -901 -9 -46 -13 -65
-23 -105 -6 -22 -18 -83 -26 -135 -9 -52 -18 -106 -21 -120 -5 -26 -13 -77
-21 -142 -2 -21 -6 -57 -9 -80 -23 -191 -29 -314 -29 -588 0 -146 3 -305 7
-355 16 -180 18 -201 22 -235 2 -19 7 -57 10 -85 4 -27 13 -90 22 -140 8 -49
17 -106 20 -125 5 -40 58 -278 73 -330 5 -19 25 -89 44 -155 19 -66 42 -142
51 -170 28 -85 76 -219 85 -240 5 -11 23 -54 39 -95 113 -290 328 -689 512
-953 58 -83 182 -252 188 -257 4 -3 22 -25 41 -50 51 -66 62 -80 89 -109 13
-14 44 -51 70 -81 60 -72 381 -392 450 -450 29 -25 63 -54 76 -65 33 -30 63
-54 140 -115 39 -30 75 -59 81 -65 6 -5 22 -17 34 -25 13 -8 35 -25 50 -37 15
-13 33 -23 39 -23 6 0 11 -4 11 -8 0 -4 15 -16 33 -27 17 -10 34 -22 37 -25 3
-4 37 -27 75 -50 39 -24 84 -53 100 -64 36 -25 50 -33 135 -83 199 -115 498
-261 660 -323 30 -11 64 -25 75 -30 11 -5 74 -27 140 -50 66 -23 131 -45 145
-50 30 -11 306 -89 334 -94 12 -2 53 -12 91 -21 66 -15 137 -30 195 -40 69
-12 168 -28 190 -30 14 -2 43 -6 65 -9 324 -46 869 -56 1175 -21 19 2 60 7 90
10 30 4 66 8 80 10 14 2 50 7 80 10 30 4 84 13 120 20 36 7 85 16 110 20 25 3
53 8 62 11 9 3 26 7 37 9 12 3 30 7 42 10 11 2 28 6 37 9 9 3 28 7 42 10 49
10 45 9 270 71 110 31 371 123 412 146 10 5 22 9 28 9 5 0 40 14 77 31 38 17
84 38 103 46 19 8 105 49 190 91 183 90 351 187 555 321 122 80 357 257 469
355 33 28 75 65 95 81 73 61 380 374 467 475 373 436 642 874 866 1410 22 52
41 100 42 105 2 6 6 17 9 25 18 42 110 322 127 386 10 41 21 78 24 82 5 8 72
300 80 352 3 19 8 46 11 60 3 14 8 39 10 55 3 17 8 37 10 45 3 8 7 38 9 65 3
28 8 66 10 85 13 84 18 128 21 170 2 25 7 86 11 135 10 116 10 613 1 730 -15
177 -19 214 -32 305 -2 14 -7 49 -10 79 -3 30 -8 57 -9 60 -2 3 -7 28 -10 55
-4 27 -9 52 -10 55 -2 3 -7 29 -11 56 -6 49 -41 203 -72 320 -8 33 -16 65 -18
70 -1 6 -4 17 -7 25 -15 44 -28 88 -32 110 -3 21 -27 91 -53 160 -3 8 -7 21
-9 27 -5 26 -57 158 -65 168 -5 5 -9 15 -9 23 0 7 -9 32 -19 55 -10 23 -31 71
-46 107 -131 315 -388 755 -608 1040 -56 72 -161 205 -167 210 -3 3 -32 37
-65 75 -71 84 -398 412 -474 475 -29 25 -60 52 -69 60 -16 16 -108 89 -162
130 -18 14 -38 30 -44 35 -12 11 -105 80 -142 105 -174 118 -314 207 -391 251
-18 10 -50 29 -70 41 -44 25 -356 184 -363 185 -3 0 -27 10 -55 23 -27 12 -68
30 -90 40 -94 42 -449 170 -485 175 -8 1 -22 5 -30 9 -19 8 -147 45 -180 52
-14 3 -41 9 -60 14 -19 5 -51 12 -70 15 -19 3 -46 10 -60 15 -24 8 -286 57
-352 65 -104 12 -143 17 -161 21 -11 2 -52 6 -91 10 -39 3 -91 8 -116 10 -50
5 -648 13 -652 9z"/>
</g>
</svg>
